<svg xmlns="http://www.w3.org/2000/svg" viewBox="0 0 256 256">
  <defs>
    <linearGradient id="bg" x1="0" y1="0" x2="1" y2="1">
      <stop offset="0%" stop-color="#233c72" />
      <stop offset="100%" stop-color="#0b1530" />
    </linearGradient>
    <radialGradient id="gloss" cx="0.35" cy="0.2" r="0.9">
      <stop offset="0%" stop-color="#b9d8ff" stop-opacity="0.28" />
      <stop offset="100%" stop-color="#b9d8ff" stop-opacity="0" />
    </radialGradient>
    <linearGradient id="line" x1="0" y1="0" x2="1" y2="1">
      <stop offset="0%" stop-color="#e6f2ff" />
      <stop offset="100%" stop-color="#8fc8ff" />
    </linearGradient>
    <linearGradient id="arrow" x1="0" y1="0" x2="1" y2="1">
      <stop offset="0%" stop-color="#dff2ff" />
      <stop offset="100%" stop-color="#6fb7ff" />
    </linearGradient>
  </defs>
  <rect x="12" y="12" width="232" height="232" rx="52" fill="url(#bg)" />
  <rect x="12" y="12" width="232" height="232" rx="52" fill="url(#gloss)" />
  <rect x="12" y="12" width="232" height="232" rx="52" fill="none" stroke="#98bff5" stroke-opacity="0.55" stroke-width="4" />

  <g fill="#cfe1ff" fill-opacity="0.45">
    <rect x="60" y="148" width="14" height="38" rx="5" />
    <rect x="89" y="132" width="14" height="54" rx="5" />
    <rect x="118" y="114" width="14" height="72" rx="5" />
    <rect x="147" y="92" width="14" height="94" rx="5" />
  </g>

  <polyline points="58,170 88,150 118,130 148,108 178,84 200,64" fill="none" stroke="url(#line)" stroke-width="10" stroke-linecap="round" stroke-linejoin="round" />
  <polygon points="200,64 182,66 190,50" fill="url(#arrow)" />
  <circle cx="58" cy="170" r="6" fill="#eaf4ff" />
</svg>
